# xmcd
#
# Track frame offsets: 
#        150
#        19147
#        33517
#        52767
#        70505
#        118644
#        144560
#        187541
#        229830
#        259934
#        296974
#
# Disc length: 4443 seconds
#
# Revision: 4
# Processed by: cddbd v1.5.2PL0 Copyright (c) Steve Scherf et al.
# Submitted via: ExactAudioCopyFreeDBPlugin 1.0
#
DISCID=9511590b
DTITLE=Various Artist - The best of Blue Note
DYEAR=2014
DGENRE=Jazz
TTITLE0=Sidney Bechet Quintet - Summertime
TTITLE1=Thelonious Monk - 'round midnight
TTITLE2=Bud Powell - A night in Tunisia
TTITLE3=Clifford Brown - Brownie eyes
TTITLE4=John Coltrane - Blue train
TTITLE5=Sonny Rollins - Tune up
TTITLE6=The Jazz Messengers - Moanin'
TTITLE7=Sonny Clark - Cool struttin'
TTITLE8=Lou Donaldson - Blues walk
TTITLE9=Cannonball Adderley - Miles Davis - Somethin' else
TTITLE10=Jimmy Smith - Back at the Chicken Shack
EXTD=YEAR: 2014
EXTT0=
EXTT1=
EXTT2=
EXTT3=
EXTT4=
EXTT5=
EXTT6=
EXTT7=
EXTT8=
EXTT9=
EXTT10=
PLAYORDER=
